{"accessors":[{"bufferView":1,"componentType":5126,"count":326,"max":[0.2033499926328659,0.29695001244544983,0.25146999955177307],"min":[-0.20077000558376312,-0.08865000307559967,-0.3818199932575226],"type":"VEC3","byteOffset":0},{"bufferView":1,"byteOffset":3912,"componentType":5126,"count":326,"max":[1,0.7259398698806763,1],"min":[-1,-0.9916096925735474,-1],"type":"VEC3"},{"bufferView":2,"componentType":5126,"count":326,"max":[0.9999349117279053,1,0.5604705214500427,1],"min":[-0.7259398698806763,-1,-0.4756990969181061,1],"type":"VEC4","byteOffset":0},{"bufferView":1,"byteOffset":7824,"componentType":5126,"count":326,"max":[1,1,1],"min":[0.9960799813270569,0.9960799813270569,0.9960799813270569],"type":"VEC3"},{"bufferView":0,"componentType":5125,"count":1620,"max":[325],"min":[0],"type":"SCALAR","byteOffset":0},{"bufferView":1,"byteOffset":11736,"componentType":5126,"count":1443,"max":[0.2033499926328659,0.29695001244544983,0.25562000274658203],"min":[-0.20077000558376312,-0.18752999603748322,-0.4395500123500824],"type":"VEC3"},{"bufferView":1,"byteOffset":29052,"componentType":5126,"count":1443,"max":[1,1,1],"min":[-1,-1,-1],"type":"VEC3"},{"bufferView":2,"byteOffset":5216,"componentType":5126,"count":1443,"max":[0.9999924302101135,1,0.9985228180885315,1],"min":[-0.9999991655349731,-1,-0.9999334812164307,-1],"type":"VEC4"},{"bufferView":1,"byteOffset":46368,"componentType":5126,"count":1443,"max":[1,1,1],"min":[0.9960799813270569,0.9960799813270569,0.9960799813270569],"type":"VEC3"},{"bufferView":0,"byteOffset":6480,"componentType":5125,"count":7140,"max":[1442],"min":[0],"type":"SCALAR"},{"bufferView":1,"byteOffset":63684,"componentType":5126,"count":294,"max":[0.14715999364852905,0.2234400063753128,0.2885400056838989],"min":[-0.14441999793052673,-0.06787999719381332,-0.37106001377105713],"type":"VEC3"},{"bufferView":1,"byteOffset":67212,"componentType":5126,"count":294,"max":[0.9989193081855774,0.9989220499992371,1],"min":[-0.9989193081855774,-0.9989220499992371,-1],"type":"VEC3"},{"bufferView":2,"byteOffset":28304,"componentType":5126,"count":294,"max":[0.979838490486145,0.9959454536437988,0.6601234078407288,1],"min":[-0.9999985694885254,-0.9992110133171082,-0.6235069632530212,1],"type":"VEC4"},{"bufferView":1,"byteOffset":70740,"componentType":5126,"count":294,"max":[1,1,1],"min":[1,1,1],"type":"VEC3"},{"bufferView":0,"byteOffset":35040,"componentType":5125,"count":1596,"max":[293],"min":[0],"type":"SCALAR"},{"bufferView":1,"byteOffset":74268,"componentType":5126,"count":1339,"max":[0.10606999695301056,-0.05172999948263168,0.21014000475406647],"min":[-0.11084000021219254,-0.098860003054142,0.13165000081062317],"type":"VEC3"},{"bufferView":1,"byteOffset":90336,"componentType":5126,"count":1339,"max":[1,1,1],"min":[-1,-1,-1],"type":"VEC3"},{"bufferView":2,"byteOffset":33008,"componentType":5126,"count":1339,"max":[0.9999998211860657,0.9999998807907104,0.9955987930297852,1],"min":[-0.9967318177223206,-0.9780815243721008,-0.9999996423721313,1],"type":"VEC4"},{"bufferView":1,"byteOffset":106404,"componentType":5126,"count":1339,"max":[1,1,1],"min":[1,1,1],"type":"VEC3"},{"bufferView":0,"byteOffset":41424,"componentType":5125,"count":6546,"max":[1338],"min":[0],"type":"SCALAR"}],"asset":{"extras":{"author":"insya (https://sketchfab.com/insya)","license":"CC-BY-4.0 (http://creativecommons.org/licenses/by/4.0/)","source":"https://sketchfab.com/models/2cd762456f334cee973619bd813680cf","title":"Coffee Maker"},"generator":"Sketchfab-3.23.2","version":"2.0"},"bufferViews":[{"buffer":0,"byteLength":67608,"byteOffset":0,"name":"floatBufferViews","target":34963},{"buffer":0,"byteLength":122472,"byteOffset":67608,"byteStride":12,"name":"floatBufferViews","target":34962},{"buffer":0,"byteLength":54432,"byteOffset":190080,"byteStride":16,"name":"floatBufferViews","target":34962}],"buffers":[{"byteLength":244512,"uri":"data:application/octet-stream;base64,"}],"materials":[{"doubleSided":true,"emissiveFactor":[0.08000000119,0.08000000119,0.08000000119],"name":"body","pbrMetallicRoughness":{"baseColorFactor":[1,1,0,1],"metallicFactor":0,"roughnessFactor":0.11},"alphaMode":"OPAQUE"},{"doubleSided":true,"emissiveFactor":[0,0,0],"name":"blackbody","pbrMetallicRoughness":{"baseColorFactor":[0.05,0.05,0.05,1],"metallicFactor":0.79,"roughnessFactor":0.15},"alphaMode":"OPAQUE"},{"alphaMode":"BLEND","doubleSided":true,"emissiveFactor":[0,0,0],"name":"glass","pbrMetallicRoughness":{"baseColorFactor":[0.0028337544,0.2679926227,0.6513748964,0.15],"metallicFactor":1,"roughnessFactor":0.12}},{"doubleSided":true,"emissiveFactor":[0,0,0],"name":"BakedCycles","pbrMetallicRoughness":{"baseColorFactor":[0.344000005117,0.344000005117,0.344000005117,1],"metallicFactor":0.83,"roughnessFactor":0.32},"alphaMode":"OPAQUE"}],"meshes":[{"name":"Cube_0","primitives":[{"attributes":{"COLOR_0":3,"NORMAL":1,"POSITION":0,"TANGENT":2},"indices":4,"material":0,"mode":4}]},{"name":"Cube_1","primitives":[{"attributes":{"COLOR_0":8,"NORMAL":6,"POSITION":5,"TANGENT":7},"indices":9,"material":1,"mode":4}]},{"name":"Cube_2","primitives":[{"attributes":{"COLOR_0":13,"NORMAL":11,"POSITION":10,"TANGENT":12},"indices":14,"material":2,"mode":4}]},{"name":"Cube_3","primitives":[{"attributes":{"COLOR_0":18,"NORMAL":16,"POSITION":15,"TANGENT":17},"indices":19,"material":3,"mode":4}]}],"nodes":[{"children":[1],"name":"RootNode (gltf orientation matrix)","rotation":[-0.7071067811865475,0,0,0.7071067811865476],"translation":[0,0,0],"scale":[1,1,1]},{"children":[2],"name":"RootNode (model correction matrix)"},{"children":[3],"name":"Root"},{"children":[4,5,6,7],"matrix":[1,0,0,0,0,1,0,0,0,0,1,0,0.0015800000000000005,0.0008000000000000003,0.031900000000000005,1],"name":"Cube"},{"mesh":0,"name":"Cube_0"},{"mesh":1,"name":"Cube_1"},{"mesh":2,"name":"Cube_2"},{"mesh":3,"name":"Cube_3"}],"scene":0,"scenes":[{"name":"OSG_Scene","nodes":[0]}]}
